<?xml version="1.0" standalone="no"?><!DOCTYPE svg PUBLIC "-//W3C//DTD SVG 1.1//EN" "http://www.w3.org/Graphics/SVG/1.1/DTD/svg11.dtd"><svg t="1689263020512" class="icon" viewBox="0 0 1024 1024" version="1.1" xmlns="http://www.w3.org/2000/svg" p-id="2369" xmlns:xlink="http://www.w3.org/1999/xlink" width="64" height="64"><path d="M704 128 704 192 832 192 832 320 896 320 896 192 896 128Z" p-id="2370"></path><path d="M832 832 704 832 704 896 896 896 896 832 896 704 832 704Z" p-id="2371"></path><path d="M192 704 128 704 128 832 128 896 320 896 320 832 192 832Z" p-id="2372"></path><path d="M192 192 320 192 320 128 128 128 128 192 128 320 192 320Z" p-id="2373"></path><path d="M256 319.808l0 384.384C256 739.008 284.544 768 319.808 768l384.384 0C739.008 768 768 739.456 768 704.192L768 319.808C768 284.992 739.456 256 704.192 256L319.808 256C284.992 256 256 284.544 256 319.808zM320 320l384 0 0 384L320 704 320 320z" p-id="2374"></path></svg>