<?xml version="1.0" standalone="no"?><!DOCTYPE svg PUBLIC "-//W3C//DTD SVG 1.1//EN" "http://www.w3.org/Graphics/SVG/1.1/DTD/svg11.dtd"><svg t="1697966878041" class="icon" viewBox="0 0 1024 1024" version="1.1" xmlns="http://www.w3.org/2000/svg" p-id="3551" xmlns:xlink="http://www.w3.org/1999/xlink" width="64" height="64"><path d="M258.133333 128A106.666667 106.666667 0 0 0 362.666667 213.333333h298.666666a106.666667 106.666667 0 0 0 104.533334-85.333333h87.424A128 128 0 0 1 981.333333 255.744v597.845333A127.872 127.872 0 0 1 853.290667 981.333333H170.666667A128 128 0 0 1 42.666667 853.589333V255.744A127.872 127.872 0 0 1 170.709333 128H258.133333zM298.666667 384a42.666667 42.666667 0 1 0 0 85.333333h256a42.666667 42.666667 0 0 0 0-85.333333H298.666667z m0 170.666667a42.666667 42.666667 0 0 0 0 85.333333h426.666666a42.666667 42.666667 0 0 0 0-85.333333H298.666667z m0 170.666666a42.666667 42.666667 0 0 0 0 85.333334h256a42.666667 42.666667 0 0 0 0-85.333334H298.666667zM362.666667 42.666667h298.666666a64 64 0 0 1 0 128h-298.666666a64 64 0 0 1 0-128z" p-id="3552"></path></svg>