<?xml version="1.0" standalone="no"?><!DOCTYPE svg PUBLIC "-//W3C//DTD SVG 1.1//EN" "http://www.w3.org/Graphics/SVG/1.1/DTD/svg11.dtd"><svg t="1697966293587" class="icon" viewBox="0 0 1024 1024" version="1.1" xmlns="http://www.w3.org/2000/svg" p-id="10744" xmlns:xlink="http://www.w3.org/1999/xlink" width="64" height="64"><path d="M186.4 478.4c-44-0.8-80 33.6-81.6 77.6v128H63.2C30.4 683.2 3.2 708.8 2.4 742.4v170.4c0.8 32.8 28 58.4 60.8 57.6h165.6c32.8 0.8 60-24.8 60.8-58.4V742.4c-0.8-32.8-28-59.2-60.8-58.4h-54.4V545.6h302.4v139.2h-48c-32.8-0.8-60 24.8-61.6 58.4v170.4c0.8 32.8 28 58.4 61.6 57.6h166.4c32.8 0.8 60-24.8 60.8-58.4V742.4c-0.8-32.8-28-59.2-60.8-58.4h-48V545.6h302.4v139.2h-54.4c-32.8-0.8-60 24.8-60.8 58.4v170.4c0.8 32.8 28 58.4 60.8 57.6h166.4c32.8 0.8 60-24.8 60.8-58.4V742.4c-0.8-32.8-28-59.2-61.6-58.4h-41.6v-128c-0.8-44-37.6-78.4-81.6-77.6H186.4z m20.8 272.8c7.2 0 12.8 5.6 12.8 12v128.8c0 7.2-5.6 12-12.8 12H84.8c-7.2 0-12.8-5.6-12.8-12V763.2c0-7.2 5.6-12 12.8-12h122.4z m366.4 0c7.2 0 12.8 5.6 12.8 12v128.8c0 7.2-5.6 12-12.8 12H450.4c-7.2 0-12.8-5.6-12.8-12V763.2c0-7.2 5.6-12 12.8-12h123.2z m378.4 140.8c0 7.2-5.6 12-12.8 12h-122.4c-7.2 0-12.8-5.6-12.8-12V763.2c0-7.2 5.6-12 12.8-12h122.4c7.2 0 12.8 5.6 12.8 12v128.8zM671.2 251.2c-4.8-6.4-4.8-15.2 0-21.6l37.6-45.6-4-10.4-4.8-10.4c-3.2-8-6.4-15.2-9.6-20-4.8-10.4-11.2-20-19.2-28l-7.2-7.2-57.6 8c-8.8 0.8-16.8-4.8-20-12.8L568 50.4l-11.2-1.6c-28.8-6.4-57.6-6.4-86.4 0l-9.6 1.6-20 54.4c-3.2 7.2-10.4 11.2-18.4 11.2h-1.6l-56.8-9.6-8 8c-15.2 18.4-27.2 39.2-35.2 61.6l-4 9.6 37.6 45.6c4.8 5.6 4.8 14.4 0 20.8L315.2 296l4 9.6c3.2 12.8 8.8 24.8 15.2 35.2 4.8 9.6 11.2 18.4 18.4 26.4l7.2 7.2 59.2-9.6c8-0.8 15.2 3.2 18.4 11.2l19.2 54.4 11.2 1.6c28.8 6.4 59.2 6.4 88 0l9.6-2.4 20-56c3.2-7.2 10.4-12 18.4-11.2l57.6 9.6 8-7.2c15.2-17.6 26.4-37.6 34.4-60l4-9.6-36.8-44z m-157.6 71.2c-45.6 0-82.4-36.8-82.4-82.4 0-45.6 36.8-82.4 82.4-82.4 45.6 0 82.4 36.8 82.4 82.4 0 45.6-36.8 81.6-82.4 82.4z" p-id="10745"></path></svg>