<?xml version="1.0" standalone="no"?><!DOCTYPE svg PUBLIC "-//W3C//DTD SVG 1.1//EN" "http://www.w3.org/Graphics/SVG/1.1/DTD/svg11.dtd"><svg t="1689758652423" class="icon" viewBox="0 0 1024 1024" version="1.1" xmlns="http://www.w3.org/2000/svg" p-id="2526" xmlns:xlink="http://www.w3.org/1999/xlink" width="32" height="32"><path d="M245.333333 341.333333c-17.066667 0-32 14.933333-32 32s14.933333 32 32 32h320c17.066667 0 32-14.933333 32-32s-14.933333-32-32-32h-320zM480 490.666667h-234.666667c-17.066667 0-32 14.933333-32 32s14.933333 32 32 32h234.666667c17.066667 0 32-14.933333 32-32s-14.933333-32-32-32zM394.666667 704c17.066667 0 32-14.933333 32-32s-14.933333-32-32-32h-149.333334c-17.066667 0-32 14.933333-32 32s14.933333 32 32 32h149.333334zM974.933333 650.666667L883.2 490.666667c-8.533333-12.8-21.333333-21.333333-36.266667-21.333334H661.333333c-14.933333 0-29.866667 8.533333-36.266666 21.333334L533.333333 650.666667c-8.533333 12.8-8.533333 29.866667 0 42.666666l91.733334 160c8.533333 12.8 21.333333 21.333333 36.266666 21.333334h185.6c14.933333 0 29.866667-8.533333 36.266667-21.333334l91.733333-160c8.533333-12.8 8.533333-29.866667 0-42.666666zM834.133333 810.666667h-160l-81.066666-138.666667 81.066666-138.666667h160l81.066667 138.666667-81.066667 138.666667z" p-id="2527"></path><path d="M791.466667 625.066667c-2.133333-4.266667-6.4-6.4-10.666667-6.4h-46.933333c-4.266667 0-8.533333 2.133333-10.666667 6.4l-23.466667 40.533333c-2.133333 4.266667-2.133333 8.533333 0 12.8l23.466667 40.533333c2.133333 4.266667 6.4 6.4 10.666667 6.4h46.933333c4.266667 0 8.533333-2.133333 10.666667-6.4l23.466666-40.533333c2.133333-4.266667 2.133333-8.533333 0-12.8l-23.466666-40.533333zM480 810.666667H106.666667V213.333333h597.333333v160c0 17.066667 14.933333 32 32 32s32-14.933333 32-32V192c0-23.466667-19.2-42.666667-42.666667-42.666667H85.333333c-23.466667 0-42.666667 19.2-42.666666 42.666667v640c0 23.466667 19.2 42.666667 42.666666 42.666667h394.666667c17.066667 0 32-14.933333 32-32s-14.933333-32-32-32z" p-id="2528"></path></svg>