<?xml version="1.0" standalone="no"?><!DOCTYPE svg PUBLIC "-//W3C//DTD SVG 1.1//EN" "http://www.w3.org/Graphics/SVG/1.1/DTD/svg11.dtd"><svg t="1689262997739" class="icon" viewBox="0 0 1024 1024" version="1.1" xmlns="http://www.w3.org/2000/svg" p-id="1907" xmlns:xlink="http://www.w3.org/1999/xlink" width="64" height="64"><path d="M987.428571 268.190476h-950.857142a36.571429 36.571429 0 0 1 0-73.142857H243.809524V73.142857a73.142857 73.142857 0 0 1 73.142857-73.142857h390.095238a73.142857 73.142857 0 0 1 73.142857 73.142857v121.904762h207.238095a36.571429 36.571429 0 0 1 0 73.142857zM707.047619 121.904762a48.761905 48.761905 0 0 0-48.761905-48.761905H365.714286a48.761905 48.761905 0 0 0-48.761905 48.761905v73.142857h390.095238V121.904762zM341.333333 816.761905v-390.095238a36.571429 36.571429 0 0 1 73.142857 0v390.095238a36.571429 36.571429 0 0 1-73.142857 0z m268.190477 0v-390.095238a36.571429 36.571429 0 0 1 73.142857 0v390.095238a36.571429 36.571429 0 0 1-73.142857 0zM158.47619 316.952381a36.254476 36.254476 0 0 1 34.133334 24.380952H195.047619v560.761905a48.761905 48.761905 0 0 0 48.761905 48.761905h536.380952a48.761905 48.761905 0 0 0 48.761905-48.761905V341.333333h2.438095a36.059429 36.059429 0 0 1 68.266667 0h2.438095v609.52381a73.142857 73.142857 0 0 1-73.142857 73.142857H195.047619a73.142857 73.142857 0 0 1-73.142857-73.142857V341.333333h2.438095a36.254476 36.254476 0 0 1 34.133333-24.380952z" fill="#333333" p-id="1908"></path></svg>