<?xml version="1.0" standalone="no"?><!DOCTYPE svg PUBLIC "-//W3C//DTD SVG 1.1//EN" "http://www.w3.org/Graphics/SVG/1.1/DTD/svg11.dtd"><svg t="1698068391268" class="icon" viewBox="0 0 1024 1024" version="1.1" xmlns="http://www.w3.org/2000/svg" p-id="1257" width="64" height="64" xmlns:xlink="http://www.w3.org/1999/xlink"><path d="M512 0C794.769794 0 1024 229.805588 1024 512 1024 794.769794 794.194408 1024 512 1024 229.230208 1024 0 794.194408 0 512 0 229.230208 229.805588 0 512 0ZM512 984.615385C772.648448 984.615385 984.615385 772.81286 984.615385 512 984.615385 251.351552 772.81286 39.384615 512 39.384615 251.351552 39.384615 39.384615 251.18714 39.384615 512 39.384615 772.648448 251.18714 984.615385 512 984.615385ZM512 539.849129 358.829792 693.019336C351.139468 700.70966 338.670988 700.70966 330.980664 693.019336 323.29034 685.329012 323.29034 672.860532 330.980664 665.170208L484.150871 512 330.980664 358.829792C323.29034 351.139468 323.29034 338.670988 330.980664 330.980664 338.670988 323.29034 351.139468 323.29034 358.829792 330.980664L512 484.150871 665.170208 330.980664C672.860532 323.29034 685.329012 323.29034 693.019336 330.980664 700.70966 338.670988 700.70966 351.139468 693.019336 358.829792L539.849129 512 693.019336 665.170208C700.70966 672.860532 700.70966 685.329012 693.019336 693.019336 685.329012 700.70966 672.860532 700.70966 665.170208 693.019336L512 539.849129Z" fill="#000000" p-id="1258"></path></svg>