<?xml version="1.0" standalone="no"?><!DOCTYPE svg PUBLIC "-//W3C//DTD SVG 1.1//EN" "http://www.w3.org/Graphics/SVG/1.1/DTD/svg11.dtd"><svg t="1689756990510" class="icon" viewBox="0 0 1024 1024" version="1.1" xmlns="http://www.w3.org/2000/svg" p-id="1866" xmlns:xlink="http://www.w3.org/1999/xlink" width="32" height="32"><path d="M887.808 137.92c21.312 21.312 32.256 47.68 32.832 79.168v593.28c-0.576 31.488-11.52 57.856-32.832 79.168s-47.68 32.256-79.168 32.832h-593.28c-31.488-0.576-57.92-11.52-79.168-32.832-21.312-21.312-32.256-47.68-32.832-79.168v-593.28c0.576-31.488 11.52-57.856 32.832-79.168s47.68-32.256 79.168-32.832h593.28c31.488 0.64 57.856 11.584 79.168 32.832zM383.36 564.48c0-14.592-4.224-26.56-12.672-35.904-8.448-9.344-21.12-14.016-38.08-14.016-16.896 0-30.208 4.672-39.808 14.016s-12.992 21.312-10.048 35.904v128.64c0 14.016 4.8 25.792 14.464 35.456s21.568 14.464 35.904 14.464c14.272 0 26.112-4.8 35.456-14.464 9.344-9.6 14.272-21.44 14.848-35.456V564.48z m173.248-230.08c0-14.016-4.8-25.792-14.464-35.456s-21.568-14.464-35.904-14.464c-14.272 0-26.112 4.8-35.456 14.464-9.344 9.6-14.272 21.44-14.848 35.456v358.72c0.576 14.016 5.568 25.792 14.848 35.456 9.344 9.6 21.12 14.464 35.456 14.464 14.272 0 26.24-4.8 35.904-14.464s14.464-21.44 14.464-35.456V334.4zM736 508.48c-0.576-14.592-6.4-26.56-17.472-35.904s-23.936-14.016-38.528-14.016c-14.592 0-26.24 4.672-35.008 14.016s-11.968 21.312-9.6 35.904v184.64c0 14.016 4.8 25.792 14.464 35.456s21.568 14.464 35.904 14.464c14.272 0 26.112-4.8 35.456-14.464 9.344-9.6 14.272-21.44 14.848-35.456V508.48z" p-id="1867"></path></svg>