<?xml version="1.0" standalone="no"?><!DOCTYPE svg PUBLIC "-//W3C//DTD SVG 1.1//EN" "http://www.w3.org/Graphics/SVG/1.1/DTD/svg11.dtd"><svg t="1697966143854" class="icon" viewBox="0 0 1024 1024" version="1.1" xmlns="http://www.w3.org/2000/svg" p-id="13965" xmlns:xlink="http://www.w3.org/1999/xlink" width="64" height="64"><path d="M489.6 727.2h421.1c26.9 0 49.3 22.4 49.3 53.8v80.6c0 26.9-22.4 53.8-49.3 53.8H489.6c-26.9 0-49.3-22.4-49.3-53.8v-9H158.1c-17.9 0-31.4-13.4-31.4-31.4v-524h-13.4c-26.9 0-49.3-26.9-49.3-53.8v-80.6c0-31.4 22.4-53.8 49.3-53.8h85.1c26.9 0 49.3 22.4 49.3 53.8v80.6c0 26.9-22.4 53.8-49.3 53.8H185v188.2h250.9v-9c0-26.9 22.4-53.8 49.3-53.8h421.1c26.9 0 49.3 22.4 49.3 53.8V557c0 26.9-22.4 53.8-49.3 53.8H485.1c-26.9 0-49.3-22.4-49.3-53.8v-9H185v246.4h250.9V781c-0.1-26.9 22.3-53.8 53.7-53.8z m421.1-430h-551c-31.4 0-53.8-26.9-53.8-53.8v-80.6c0-31.4 22.4-53.8 53.8-53.8h551c26.9 0 49.3 22.4 49.3 53.8v80.6c0 26.9-22.4 53.8-49.3 53.8z" p-id="13966"></path></svg>