<?xml version="1.0" standalone="no"?><!DOCTYPE svg PUBLIC "-//W3C//DTD SVG 1.1//EN" "http://www.w3.org/Graphics/SVG/1.1/DTD/svg11.dtd"><svg t="1698025291468" class="icon" viewBox="0 0 1024 1024" version="1.1" xmlns="http://www.w3.org/2000/svg" p-id="3337" xmlns:xlink="http://www.w3.org/1999/xlink" width="64" height="64"><path d="M224 352a127.84 127.84 0 0 0 118.496-80h553.664a32 32 0 0 0 0-64H350.4C342.432 144.96 289.216 96 224 96a128 128 0 0 0 0 256z m0-192a64 64 0 1 1-0.032 128.032A64 64 0 0 1 224 160zM896.512 640H352c-1.504 0-2.816 0.672-4.256 0.864A127.744 127.744 0 0 0 224 544a128 128 0 0 0 0 256 127.744 127.744 0 0 0 123.744-96.864c1.44 0.192 2.752 0.864 4.256 0.864h544.512a32 32 0 0 0 0-64zM224 736a64 64 0 1 1 0.032-128.032A64 64 0 0 1 224 736zM896.512 416H608a32 32 0 0 0 0 64h288.512a32 32 0 0 0 0-64zM896.512 832H608a32 32 0 0 0 0 64h288.512a32 32 0 0 0 0-64z" p-id="3338" fill="#000000"></path></svg>