<?xml version="1.0" standalone="no"?><!DOCTYPE svg PUBLIC "-//W3C//DTD SVG 1.1//EN" "http://www.w3.org/Graphics/SVG/1.1/DTD/svg11.dtd"><svg t="1698025247630" class="icon" viewBox="0 0 1024 1024" version="1.1" xmlns="http://www.w3.org/2000/svg" p-id="2108" xmlns:xlink="http://www.w3.org/1999/xlink" width="64" height="64"><path d="M864 280.224V192a32 32 0 0 0-32-32H160a32 32 0 0 0-32 32v88.224h736z m-736 64V864a32 32 0 0 0 32 32h672a32 32 0 0 0 32-32v-86.592a32 32 0 1 1 64 0V864a96 96 0 0 1-96 96H160a96 96 0 0 1-96-96V192a96 96 0 0 1 96-96h672a96 96 0 0 1 96 96v120.224a32 32 0 0 1-32 32H128z" fill="#000000" p-id="2109"></path><path d="M595.84 437.088a32 32 0 0 1 60.16 21.856l-109.44 288a32 32 0 0 1-60.16-21.856l109.44-288zM744.192 469.408a32 32 0 1 1 47.616-42.816l126.432 140.64a32 32 0 0 1 0 42.784l-126.432 140.64a32 32 0 0 1-47.616-42.784l107.232-119.232-107.2-119.232zM406.24 469.408a32 32 0 1 0-47.584-42.816l-126.464 140.64a32 32 0 0 0 0 42.784l126.464 140.64a32 32 0 0 0 47.584-42.784l-107.2-119.232 107.2-119.232z" fill="#000000" p-id="2110"></path></svg>