<?xml version="1.0" standalone="no"?><!DOCTYPE svg PUBLIC "-//W3C//DTD SVG 1.1//EN" "http://www.w3.org/Graphics/SVG/1.1/DTD/svg11.dtd"><svg t="1690372430043" class="icon" viewBox="0 0 1024 1024" version="1.1" xmlns="http://www.w3.org/2000/svg" p-id="2365" width="32" height="32" xmlns:xlink="http://www.w3.org/1999/xlink"><path d="M682.47 101c72.01 0 130.041 59.663 131.194 133.157l0.018 2.231v467.066c0 16.519-13.383 29.91-29.891 29.91-16.273 0-29.509-13.012-29.883-29.204l-0.009-0.706V236.388c0-41.574-31.608-74.895-70.255-75.557l-1.174-0.01H202.212c-38.787 0-70.784 32.905-71.42 74.31l-0.01 1.257v601.224c0 41.574 31.609 74.895 70.256 75.557l1.174 0.01h642.917c21.34 0 38.686-17.111 39.082-38.37l0.007-0.743V199.292c0-16.52 13.382-29.91 29.89-29.91 16.273 0 29.509 13.01 29.892 29.204v675.48c0 54.093-43.385 98.047-97.236 98.92l-1.635 0.014H202.212c-72.01 0-130.041-59.663-131.195-133.157L71 837.612V236.388c0-73.768 57.311-134.17 129.034-135.37l2.178-0.018H682.47z m-78.027 616.612c12.7 0 22.994 10.301 22.994 23.008 0 12.492-9.949 22.658-22.35 23l-0.644 0.008H289.436c-12.699 0-22.993-10.301-22.993-23.008 0-12.491 9.948-22.658 22.35-22.999l0.643-0.009h315.007z m0-138.047c12.7 0 22.994 10.3 22.994 23.008 0 12.491-9.949 22.658-22.35 22.999l-0.644 0.008H289.436c-12.699 0-22.993-10.3-22.993-23.007 0-12.492 9.948-22.658 22.35-23l0.643-0.008h315.007z m0-138.048c12.7 0 22.994 10.301 22.994 23.008 0 12.492-9.949 22.658-22.35 23l-0.644 0.008H289.436c-12.699 0-22.993-10.301-22.993-23.008 0-12.491 9.948-22.658 22.35-22.999l0.643-0.009h315.007z m-75.876-132.181c12.7 0 22.994 10.3 22.994 23.008 0 12.491-9.949 22.658-22.35 22.999l-0.644 0.009H366.343c-12.699 0-22.993-10.301-22.993-23.008 0-12.492 9.948-22.658 22.35-23l0.643-0.008h162.224z" fill="#333333" p-id="2366"></path></svg>