<?xml version="1.0" standalone="no"?><!DOCTYPE svg PUBLIC "-//W3C//DTD SVG 1.1//EN" "http://www.w3.org/Graphics/SVG/1.1/DTD/svg11.dtd"><svg t="1689263007214" class="icon" viewBox="0 0 1024 1024" version="1.1" xmlns="http://www.w3.org/2000/svg" p-id="2215" xmlns:xlink="http://www.w3.org/1999/xlink" width="64" height="64"><path d="M597.333333 405.376c0-0.128 0.085333-0.256 0.085333-0.384C597.418667 404.821333 597.333333 404.650667 597.333333 404.522667L597.333333 192.768C597.333333 180.522667 606.933333 170.538667 618.666667 170.666667c11.733333-0.042667 21.376 9.813333 21.376 22.144L640.042667 384l191.189333 0c12.16 0 22.186667 9.6 22.101333 21.333333 0 11.733333-9.813333 21.333333-22.186667 21.333333l-211.754667 0c-0.128 0-0.256-0.085333-0.384-0.085333S618.837333 426.666667 618.709333 426.666667c-4.821333 0-9.045333-1.962667-12.629333-4.736-0.853333-0.64-1.749333-0.981333-2.432-1.706667-0.213333-0.213333-0.298667-0.469333-0.512-0.725333C599.68 415.744 597.333333 410.837333 597.333333 405.376zM362.666667 170.666667C350.933333 170.624 341.290667 180.48 341.290667 192.810667L341.290667 384 150.101333 384C137.898667 384 127.914667 393.6 128 405.333333 128 417.066667 137.813333 426.666667 150.186667 426.666667l211.754667 0c0.128 0 0.256-0.085333 0.384-0.085333S362.496 426.666667 362.624 426.666667c4.821333 0 9.045333-1.962667 12.629333-4.736 0.853333-0.64 1.749333-0.981333 2.432-1.706667 0.213333-0.213333 0.298667-0.469333 0.512-0.725333C381.653333 415.744 384 410.837333 384 405.376c0-0.128-0.085333-0.256-0.085333-0.384C383.914667 404.821333 384 404.650667 384 404.522667L384 192.768C384 180.522667 374.4 170.538667 362.666667 170.666667zM831.146667 640l-211.754667 0c-0.128 0-0.256 0.085333-0.384 0.085333S618.837333 640 618.709333 640c-4.821333 0-9.088 2.005333-12.672 4.778667-0.810667 0.597333-1.706667 0.938667-2.389333 1.664-0.213333 0.213333-0.298667 0.469333-0.512 0.725333C599.68 650.922667 597.333333 655.829333 597.333333 661.290667c0 0.128 0.085333 0.256 0.085333 0.384 0 0.170667-0.085333 0.341333-0.085333 0.469333l0 211.797333c0 12.202667 9.6 22.229333 21.333333 22.101333 11.733333 0.042667 21.376-9.813333 21.376-22.144L640.042667 682.666667l191.189333 0c12.16 0 22.186667-9.6 22.101333-21.333333C853.333333 649.6 843.52 640 831.146667 640zM378.154667 647.168c-0.213333-0.256-0.298667-0.512-0.512-0.725333-0.682667-0.725333-1.578667-1.066667-2.389333-1.664C371.712 642.005333 367.445333 640 362.624 640c-0.128 0-0.213333 0.085333-0.341333 0.085333S362.026667 640 361.898667 640L150.186667 640C137.813333 640 128 649.6 128 661.333333 127.914667 673.066667 137.898667 682.666667 150.101333 682.666667l191.189333 0 0 191.189333c0 12.288 9.642667 22.186667 21.376 22.144C374.4 896.128 384 886.144 384 873.898667l0-211.797333c0-0.128-0.085333-0.298667-0.085333-0.469333C383.914667 661.546667 384 661.418667 384 661.290667 384 655.829333 381.653333 650.922667 378.154667 647.168zM490.666667 469.333333c-35.328 0-64 28.672-64 64s28.672 64 64 64 64-28.672 64-64S525.994667 469.333333 490.666667 469.333333z" fill="#020202" p-id="2216"></path></svg>