<?xml version="1.0" standalone="no"?><!DOCTYPE svg PUBLIC "-//W3C//DTD SVG 1.1//EN" "http://www.w3.org/Graphics/SVG/1.1/DTD/svg11.dtd"><svg t="1698025295693" class="icon" viewBox="0 0 1024 1024" version="1.1" xmlns="http://www.w3.org/2000/svg" p-id="3508" xmlns:xlink="http://www.w3.org/1999/xlink" width="64" height="64"><path d="M847.402667 323.328h-233.301334V220.330667a29.141333 29.141333 0 0 0-29.184-29.184H213.034667v-36.437334a7.296 7.296 0 0 0-7.253334-7.253333H154.666667a7.296 7.296 0 0 0-7.253334 7.253333v714.581334c0 4.010667 3.242667 7.253333 7.253334 7.253333h51.029333c4.010667 0 7.296-3.242667 7.296-7.253333v-240.64h226.048v102.997333c0 16.128 13.013333 29.184 29.184 29.184h379.136a29.141333 29.141333 0 0 0 29.184-29.184V352.512a29.141333 29.141333 0 0 0-29.184-29.184zM213.034667 563.029333V256.853333h335.402666v306.218667h-335.36z m597.930666 132.181334h-306.261333v-66.56h102.101333c4.010667 0 7.253333-3.285333 7.253334-7.253334V388.906667h196.906666v306.261333z" fill="#000000" p-id="3509"></path></svg>