<?xml version="1.0" standalone="no"?><!DOCTYPE svg PUBLIC "-//W3C//DTD SVG 1.1//EN" "http://www.w3.org/Graphics/SVG/1.1/DTD/svg11.dtd"><svg t="1697966823008" class="icon" viewBox="0 0 1024 1024" version="1.1" xmlns="http://www.w3.org/2000/svg" p-id="11669" xmlns:xlink="http://www.w3.org/1999/xlink" width="64" height="64"><path d="M564.906667 534.613333a216.746667 216.746667 0 1 1 216.746666-216.746666 217.173333 217.173333 0 0 1-216.746666 216.746666z m0-366.506666a149.76 149.76 0 1 0 149.76 149.76 150.186667 150.186667 0 0 0-149.76-149.76z" fill="#000000" p-id="11670"></path><path d="M216.32 896a33.706667 33.706667 0 0 1-33.28-33.706667c0-185.6 157.866667-392.96 384-392.96a33.706667 33.706667 0 0 1 0 66.986667c-181.76 0-317.866667 170.666667-317.866667 325.973333a33.706667 33.706667 0 0 1-32.853333 33.706667zM316.586667 488.96c-56.32 0-125.013333-72.106667-125.013334-156.586667A157.013333 157.013333 0 0 1 256 207.36 33.28 33.28 0 0 1 301.226667 213.333333a32.853333 32.853333 0 0 1-6.826667 47.36 87.893333 87.893333 0 0 0-35.84 71.68 97.28 97.28 0 0 0 58.026667 89.6 33.706667 33.706667 0 0 1 33.28 33.706667 33.28 33.28 0 0 1-33.28 33.28z" fill="#000000" p-id="11671"></path><path d="M115.2 725.333333a33.28 33.28 0 0 1-33.28-33.28c0-128 102.4-271.786667 234.666667-271.786666a33.706667 33.706667 0 0 1 0 66.986666c-90.453333 0-167.68 112.213333-167.68 204.8a33.706667 33.706667 0 0 1-33.706667 33.28zM810.666667 779.093333a128 128 0 1 1 130.133333-128 128 128 0 0 1-130.133333 128z m0-192.853333a63.146667 63.146667 0 1 0 63.146666 63.146667A63.146667 63.146667 0 0 0 810.666667 586.24z" fill="#000000" p-id="11672"></path><path d="M773.973333 724.906667m32.426667 0l4.266667 0q32.426667 0 32.426666 32.426666l0 145.493334q0 32.426667-32.426666 32.426666l-4.266667 0q-32.426667 0-32.426667-32.426666l0-145.493334q0-32.426667 32.426667-32.426666Z" fill="#000000" p-id="11673"></path><path d="M912.64 809.813333m0 34.56l0 0q0 34.56-34.56 34.56l-69.973333 0q-34.56 0-34.56-34.56l0 0q0-34.56 34.56-34.56l69.973333 0q34.56 0 34.56 34.56Z" fill="#000000" p-id="11674"></path></svg>