<?xml version="1.0" standalone="no"?><!DOCTYPE svg PUBLIC "-//W3C//DTD SVG 1.1//EN" "http://www.w3.org/Graphics/SVG/1.1/DTD/svg11.dtd"><svg t="1698025264131" class="icon" viewBox="0 0 1024 1024" version="1.1" xmlns="http://www.w3.org/2000/svg" p-id="2623" xmlns:xlink="http://www.w3.org/1999/xlink" width="64" height="64"><path d="M753.9 629.5c-33.3-33.3-73.4-59.6-118.1-76.9 63.7-40.4 106-111.6 106-192.6 0-125.9-102.1-228-228-228s-228 102.1-228 228c0 81 42.3 152.2 106 192.6-44.7 17.2-84.8 43.6-118.1 76.9-61.5 61.5-99.5 146.4-99.5 240.2 0 18.7 15.2 33.8 33.8 33.8 18.7 0 33.8-15.2 33.8-33.8 0-72.6 28.3-140.9 79.6-192.3 51.4-51.4 119.6-79.6 192.3-79.6 72.6 0 140.9 28.3 192.3 79.6 51.4 51.4 79.6 119.7 79.6 192.3 0 18.7 15.2 33.8 33.8 33.8 18.7 0 33.8-15.2 33.8-33.8 0.2-93.8-37.8-178.8-99.3-240.2zM345.8 360c0-92.6 75.4-168 168-168s168 75.4 168 168-75.4 168-168 168-168-75.4-168-168z" p-id="2624" fill="#000000"></path></svg>