<?xml version="1.0" standalone="no"?><!DOCTYPE svg PUBLIC "-//W3C//DTD SVG 1.1//EN" "http://www.w3.org/Graphics/SVG/1.1/DTD/svg11.dtd"><svg t="1697967601370" class="icon" viewBox="0 0 1024 1024" version="1.1" xmlns="http://www.w3.org/2000/svg" p-id="11599" xmlns:xlink="http://www.w3.org/1999/xlink" width="64" height="64"><path d="M790.528 464h2.944a232 232 0 1 0-2.944 0zM793.472 64a168 168 0 0 1 0 336h-2.944A168 168 0 1 1 793.472 64zM425.6 560H38.4A38.432 38.432 0 0 0 0 598.4v387.2A38.464 38.464 0 0 0 38.4 1024h387.2a38.464 38.464 0 0 0 38.4-38.4V598.4a38.432 38.432 0 0 0-38.4-38.4zM400 960H64V624h336zM985.6 560H598.4a38.432 38.432 0 0 0-38.4 38.4v387.2a38.464 38.464 0 0 0 38.4 38.4h387.2a38.464 38.464 0 0 0 38.4-38.4V598.4a38.432 38.432 0 0 0-38.4-38.4zM960 960H624V624H960zM425.6 0H38.4A38.432 38.432 0 0 0 0 38.4v387.2a38.464 38.464 0 0 0 38.4 38.4h387.2a38.464 38.464 0 0 0 38.4-38.4V38.4A38.432 38.432 0 0 0 425.6 0z m-25.6 400H64V64h336z" fill="#000000" p-id="11600"></path></svg>