<?xml version="1.0" standalone="no"?><!DOCTYPE svg PUBLIC "-//W3C//DTD SVG 1.1//EN" "http://www.w3.org/Graphics/SVG/1.1/DTD/svg11.dtd"><svg t="1698025274924" class="icon" viewBox="0 0 1024 1024" version="1.1" xmlns="http://www.w3.org/2000/svg" p-id="2962" xmlns:xlink="http://www.w3.org/1999/xlink" width="64" height="64"><path d="M678.314667 642.389333a171.434667 171.434667 0 0 1 81.365333-20.394666h0.128c2.986667 0 4.394667-3.584 2.176-5.589334a371.626667 371.626667 0 0 0-103.68-65.792c-0.426667-0.213333-0.810667-0.298667-1.194667-0.512a248.064 248.064 0 0 0 102.485334-201.088 247.722667 247.722667 0 0 0-247.466667-248.021333c-136.746667 0-247.466667 111.018667-247.466667 248.021333a247.893333 247.893333 0 0 0 102.656 201.088c-0.426667 0.213333-0.853333 0.298667-1.237333 0.512a372.608 372.608 0 0 0-119.296 80.597334 373.418667 373.418667 0 0 0-80.384 119.466666 373.632 373.632 0 0 0-29.44 138.112 8.021333 8.021333 0 0 0 8.021333 8.192h59.904c4.309333 0 7.936-3.498667 8.021334-7.765333a298.368 298.368 0 0 1 87.594666-204.330667 296.874667 296.874667 0 0 1 211.712-87.893333c56.704 0 111.104 15.701333 157.994667 45.098667a8.106667 8.106667 0 0 0 8.106667 0.298666z m-166.101334-121.386666a170.581333 170.581333 0 0 1-121.429333-50.389334A171.221333 171.221333 0 0 1 340.48 349.013333c0-45.909333 17.92-89.130667 50.346667-121.6a170.24 170.24 0 0 1 121.386666-50.432c45.866667 0 88.874667 17.92 121.386667 50.432a171.221333 171.221333 0 0 1 50.304 121.6c0 45.866667-17.92 89.088-50.304 121.6a170.581333 170.581333 0 0 1-121.386667 50.346667z m367.786667 237.994666h-84.010667V674.986667a8.021333 8.021333 0 0 0-7.978666-7.978667h-56.021334a8.021333 8.021333 0 0 0-7.978666 7.978667v84.053333H640a8.021333 8.021333 0 0 0-8.021333 7.978667v55.978666c0 4.394667 3.626667 8.021333 8.021333 8.021334h84.010667v83.968c0 4.394667 3.584 8.021333 7.978666 8.021333h56.021334a8.021333 8.021333 0 0 0 7.978666-8.021333v-83.968h84.010667a8.021333 8.021333 0 0 0 8.021333-8.021334v-55.978666a8.021333 8.021333 0 0 0-8.021333-8.021334z" fill="#000000" p-id="2963"></path></svg>