<?xml version="1.0" standalone="no"?><!DOCTYPE svg PUBLIC "-//W3C//DTD SVG 1.1//EN" "http://www.w3.org/Graphics/SVG/1.1/DTD/svg11.dtd"><svg t="1689263685428" class="icon" viewBox="0 0 1024 1024" version="1.1" xmlns="http://www.w3.org/2000/svg" p-id="3855" xmlns:xlink="http://www.w3.org/1999/xlink" width="32" height="32"><path d="M426.666667 896H170.666667a128 128 0 0 1-128-128V213.333333a128 128 0 0 1 128-128h85.333333a42.666667 42.666667 0 0 1 42.666667 42.666667v42.666667h170.666666V128a42.666667 42.666667 0 0 1 42.666667-42.666667h85.333333a128 128 0 0 1 128 128v170.666667a42.666667 42.666667 0 0 1-85.333333 0V213.333333a42.666667 42.666667 0 0 0-42.666667-42.666666h-42.666666v42.666666a42.666667 42.666667 0 0 1-42.666667 42.666667H256a42.666667 42.666667 0 0 1-42.666667-42.666667V170.666667H170.666667a42.666667 42.666667 0 0 0-42.666667 42.666666v554.666667a42.666667 42.666667 0 0 0 42.666667 42.666667h256a42.666667 42.666667 0 0 1 0 85.333333z" p-id="3856"></path><path d="M512 256H256a42.666667 42.666667 0 0 1-42.666667-42.666667V42.666667a42.666667 42.666667 0 0 1 42.666667-42.666667h256a42.666667 42.666667 0 0 1 42.666667 42.666667v170.666666a42.666667 42.666667 0 0 1-42.666667 42.666667zM298.666667 170.666667h170.666666V85.333333H298.666667zM853.333333 1024h-341.333333a128 128 0 0 1-128-128V469.333333a128 128 0 0 1 128-128h341.333333a128 128 0 0 1 128 128v426.666667a128 128 0 0 1-128 128z m-341.333333-597.333333a42.666667 42.666667 0 0 0-42.666667 42.666666v426.666667a42.666667 42.666667 0 0 0 42.666667 42.666667h341.333333a42.666667 42.666667 0 0 0 42.666667-42.666667V469.333333a42.666667 42.666667 0 0 0-42.666667-42.666666z" p-id="3857"></path><path d="M768 597.333333h-170.666667a42.666667 42.666667 0 0 1 0-85.333333h170.666667a42.666667 42.666667 0 0 1 0 85.333333zM768 725.333333h-170.666667a42.666667 42.666667 0 0 1 0-85.333333h170.666667a42.666667 42.666667 0 0 1 0 85.333333zM768 853.333333h-170.666667a42.666667 42.666667 0 0 1 0-85.333333h170.666667a42.666667 42.666667 0 0 1 0 85.333333z" p-id="3858"></path></svg>