<?xml version="1.0" standalone="no"?><!DOCTYPE svg PUBLIC "-//W3C//DTD SVG 1.1//EN" "http://www.w3.org/Graphics/SVG/1.1/DTD/svg11.dtd"><svg t="1689263027132" class="icon" viewBox="0 0 1024 1024" version="1.1" xmlns="http://www.w3.org/2000/svg" p-id="2527" xmlns:xlink="http://www.w3.org/1999/xlink" width="64" height="64"><path d="M0 585.142857h73.142857v73.142857H0v-73.142857z m0 365.714286h73.142857v-73.142857H0v73.142857z m0-146.285714h73.142857v-73.142858H0v73.142858z m0-292.571429h73.142857v-73.142857H0v73.142857zM0 73.142857h73.142857V0H0v73.142857z m0 292.571429h73.142857v-73.142857H0v73.142857z m0-146.285715h73.142857v-73.142857H0v73.142857z m877.714286 438.857143h73.142857v-73.142857h-73.142857v73.142857z m73.142857-219.428571h-73.142857v73.142857h73.142857v-73.142857zM804.571429 0h-73.142858v73.142857h73.142858V0z m146.285714 0h-73.142857v73.142857h73.142857V0z m0 146.285714h-73.142857v73.142857h73.142857v-73.142857z m0 146.285715h-73.142857v73.142857h73.142857v-73.142857zM292.571429 73.142857h73.142857V0h-73.142857v73.142857z m585.142857 950.857143h73.142857v-73.142857h-73.142857v73.142857zM585.142857 73.142857h73.142857V0h-73.142857v73.142857z m146.285714 804.571429v73.142857h146.285715v-73.142857H731.428571z m219.428572-146.285715h-73.142857v146.285715h73.142857V731.428571z m0 146.285715v73.142857h73.142857v-73.142857h-73.142857z m-658.285714 73.142857h73.142857v-73.142857h-73.142857v73.142857z m-146.285715 0h73.142857v-73.142857h-73.142857v73.142857z m0-877.714286h73.142857V0h-73.142857v73.142857z m438.857143 877.714286h73.142857v-73.142857h-73.142857v73.142857zM438.857143 73.142857h73.142857V0h-73.142857v73.142857z m0 877.714286h73.142857v-73.142857h-73.142857v73.142857z" p-id="2528"></path></svg>