<?xml version="1.0" standalone="no"?><!DOCTYPE svg PUBLIC "-//W3C//DTD SVG 1.1//EN" "http://www.w3.org/Graphics/SVG/1.1/DTD/svg11.dtd"><svg t="1698025269984" class="icon" viewBox="0 0 1024 1024" version="1.1" xmlns="http://www.w3.org/2000/svg" p-id="2790" xmlns:xlink="http://www.w3.org/1999/xlink" width="64" height="64"><path d="M808.23 68.24H218.24c-83.81 0-152 68.19-152 152v460.42c0 83.81 68.19 152 152 152h589.99c83.81 0 152-68.19 152-152V220.24c0-83.81-68.19-152-152-152z m88 612.42c0 48.52-39.48 88-88 88H218.24c-48.52 0-88-39.48-88-88V220.24c0-48.52 39.48-88 88-88h589.99c48.52 0 88 39.48 88 88v460.42zM704.37 898.23H320.3c-17.67 0-32 14.33-32 32s14.33 32 32 32h384.07c17.67 0 32-14.33 32-32s-14.33-32-32-32z" fill="#000000" p-id="2791"></path><path d="M784.71 229.9c-15.5-8.5-34.95-2.82-43.44 12.68L572.2 550.98 412.83 337.82a32.011 32.011 0 0 0-28.26-12.73c-10.98 0.91-20.73 7.4-25.79 17.19l-130.91 253c-8.12 15.7-1.98 35 13.71 43.13 4.7 2.43 9.73 3.59 14.68 3.59 11.58 0 22.76-6.31 28.45-17.3l107.44-207.64 158.57 212.1a31.986 31.986 0 0 0 27.88 12.76 31.966 31.966 0 0 0 25.81-16.54l192.98-352.01c8.5-15.52 2.82-34.97-12.68-43.47z" fill="#000000" p-id="2792"></path></svg>