<?xml version="1.0" standalone="no"?><!DOCTYPE svg PUBLIC "-//W3C//DTD SVG 1.1//EN" "http://www.w3.org/Graphics/SVG/1.1/DTD/svg11.dtd"><svg t="1698025252977" class="icon" viewBox="0 0 1024 1024" version="1.1" xmlns="http://www.w3.org/2000/svg" p-id="2280" xmlns:xlink="http://www.w3.org/1999/xlink" width="64" height="64"><path d="M794.88 1013.76H162.56a94.72 94.72 0 0 1-94.72-94.72V135.68A95.36 95.36 0 0 1 162.56 40.96h391.04a32 32 0 0 1 32 32 31.36 31.36 0 0 1-32 31.36H162.56a31.36 31.36 0 0 0-31.36 31.36v783.36a31.36 31.36 0 0 0 31.36 31.36h632.32a31.36 31.36 0 0 0 31.36-31.36V512a32.64 32.64 0 0 1 32-32 32 32 0 0 1 31.36 32v409.6a94.72 94.72 0 0 1-94.72 92.16z" fill="#000000" p-id="2281"></path><path d="M478.72 374.4H263.04a32 32 0 0 1 0-64h215.68a32 32 0 1 1 0 64zM629.76 561.28H263.04a32 32 0 0 1 0-64h366.72a32 32 0 0 1 0 64zM629.76 747.52H263.04a32 32 0 0 1 0-64h366.72a32 32 0 0 1 0 64zM1012.48 140.8l-128-131.84a14.72 14.72 0 0 0-14.72-5.12 14.08 14.08 0 0 0-10.24 10.88l-20.48 49.28a69.12 69.12 0 0 1-29.44 32.64l-165.76 84.48a16.64 16.64 0 0 0-9.6 12.8 14.72 14.72 0 0 0 5.12 14.72l59.52 59.52L601.6 408.32l143.36-93.44L813.44 384a16 16 0 0 0 15.36 5.76 16.64 16.64 0 0 0 12.8-9.6l91.52-160.64a88.96 88.96 0 0 1 32.64-30.72l42.24-21.12a16.64 16.64 0 0 0 10.24-12.16 15.36 15.36 0 0 0-5.76-14.08z m0 0" fill="#000000" p-id="2282"></path></svg>