<?xml version="1.0" standalone="no"?><!DOCTYPE svg PUBLIC "-//W3C//DTD SVG 1.1//EN" "http://www.w3.org/Graphics/SVG/1.1/DTD/svg11.dtd"><svg t="1698025226157" class="icon" viewBox="0 0 1024 1024" version="1.1" xmlns="http://www.w3.org/2000/svg" p-id="1526" xmlns:xlink="http://www.w3.org/1999/xlink" width="64" height="64"><path d="M536.508695 515.037173 533.082666 506.909052 528.910647 510.318708Z" fill="#000000" p-id="1527"></path><path d="M431.339424 549.69553 194.782753 549.69553c-21.871123 0-39.666418 17.796318-39.666418 39.667441l0 236.553601c0 21.87317 17.795295 39.667441 39.666418 39.667441l236.556671 0c21.871123 0 39.665395-17.794271 39.665395-39.667441L471.004819 589.362972C471.004819 567.491849 453.210547 549.69553 431.339424 549.69553zM430.205601 824.780703 195.9176 824.780703 195.9176 590.497818l234.288001 0L430.205601 824.780703z" fill="#000000" p-id="1528"></path><path d="M192.211185 508.24242l236.557694 0c21.871123 0 39.665395-17.794271 39.665395-39.664372l0-236.557694c0-21.871123-17.794271-39.664372-39.665395-39.664372L192.211185 192.355983c-21.871123 0-39.664372 17.793248-39.664372 39.664372l0 236.557694C152.547837 490.448148 170.340061 508.24242 192.211185 508.24242zM193.349101 233.155201l234.284931 0 0 234.285954L193.349101 467.441155 193.349101 233.155201z" fill="#000000" p-id="1529"></path><path d="M813.097104 547.127032 576.541457 547.127032c-21.862937 0-39.646975 17.794271-39.646975 39.665395l0 236.555647c0 21.871123 17.784038 39.665395 39.646975 39.665395l236.555647 0c21.881356 0 39.683814-17.794271 39.683814-39.665395L852.780919 586.792427C852.780919 564.921303 834.978461 547.127032 813.097104 547.127032zM811.980677 822.213227 577.69677 822.213227 577.69677 587.927273l234.283908 0L811.980677 822.213227z" fill="#000000" p-id="1530"></path><path d="M859.52553 314.327942 720.943264 175.745676c-7.087419-7.064906-16.504906-10.956539-26.51591-10.956539-10.008958 0-19.422352 3.891633-26.5374 10.981099L529.377274 314.303382c-7.110955 7.089465-11.026124 16.522302-11.026124 26.561959s3.91517 19.473517 11.000542 26.536376l138.539286 138.559752c7.080256 7.080256 16.501836 10.980076 26.529213 10.980076 10.016121 0 19.436678-3.891633 26.547633-10.980076L859.550089 367.380228C874.147552 352.73774 874.136296 328.939731 859.52553 314.327942zM694.429401 471.41363 563.900555 340.865341 694.429401 210.318076l130.547265 130.547265L694.429401 471.41363z" fill="#000000" p-id="1531"></path></svg>