<?xml version="1.0" standalone="no"?><!DOCTYPE svg PUBLIC "-//W3C//DTD SVG 1.1//EN" "http://www.w3.org/Graphics/SVG/1.1/DTD/svg11.dtd"><svg t="1697967347510" class="icon" viewBox="0 0 1024 1024" version="1.1" xmlns="http://www.w3.org/2000/svg" p-id="10171" width="64" height="64" xmlns:xlink="http://www.w3.org/1999/xlink"><path d="M928 768a160 160 0 1 1-192-156.8V544h-448v67.2a160 160 0 1 1-64 0V480h256v-64h-64a128 128 0 0 1-128-128v-64a128 128 0 0 1 128-128h192a128 128 0 0 1 128 128v64a128 128 0 0 1-128 128h-64v64h256v131.2a160 160 0 0 1 128 156.8zM256 672A96 96 0 1 0 352 768 96 96 0 0 0 256 672z m352-320a64 64 0 0 0 64-64v-64a64 64 0 0 0-64-64h-192a64 64 0 0 0-64 64v64a64 64 0 0 0 64 64h192z m160 320a96 96 0 1 0 96 96 96 96 0 0 0-96-96z" fill="#000000" p-id="10172"></path></svg>