<?xml version="1.0" standalone="no"?><!DOCTYPE svg PUBLIC "-//W3C//DTD SVG 1.1//EN" "http://www.w3.org/Graphics/SVG/1.1/DTD/svg11.dtd"><svg t="1697967051298" class="icon" viewBox="0 0 1024 1024" version="1.1" xmlns="http://www.w3.org/2000/svg" p-id="12485" xmlns:xlink="http://www.w3.org/1999/xlink" width="64" height="64"><path d="M792.14 905.5H244.66a39.46 39.46 0 0 1-39.41-39.41V294.16a39.46 39.46 0 0 1 39.41-39.41h114.75V308H258.46v544.28h519.87V308H675.56v-53.25h116.58a39.46 39.46 0 0 1 39.41 39.41v571.93a39.46 39.46 0 0 1-39.41 39.41z" p-id="12486"></path><path d="M476.56 735.49L355.58 608l38.6-36.63 83.57 88.05 165.62-163.98 37.44 37.82-204.25 202.23zM679.71 367.17H357.25V198.54h322.46zM410.47 314h216v-62.2h-216z" p-id="12487"></path></svg>