<?xml version="1.0" standalone="no"?><!DOCTYPE svg PUBLIC "-//W3C//DTD SVG 1.1//EN" "http://www.w3.org/Graphics/SVG/1.1/DTD/svg11.dtd"><svg t="1697966960176" class="icon" viewBox="0 0 1024 1024" version="1.1" xmlns="http://www.w3.org/2000/svg" p-id="12178" xmlns:xlink="http://www.w3.org/1999/xlink" width="64" height="64"><path d="M569.6 750.933333l-19.2-68.266666H42.666667v106.666666c0 46.933333 38.4 85.333333 85.333333 85.333334h448l-4.266667-4.266667c-32-34.133333-34.133333-85.333333-2.133333-119.466667zM266.666667 810.666667h-106.666667c-17.066667 0-32-14.933333-32-32S142.933333 746.666667 160 746.666667h106.666667c17.066667 0 32 14.933333 32 32s-14.933333 32-32 32zM573.866667 565.333333l138.666666-138.666666H42.666667v192h503.466666c4.266667-19.2 12.8-38.4 27.733334-53.333334zM266.666667 554.666667h-106.666667c-17.066667 0-32-14.933333-32-32S142.933333 490.666667 160 490.666667h106.666667c17.066667 0 32 14.933333 32 32s-14.933333 32-32 32zM789.333333 256c0-46.933333-38.4-85.333333-85.333333-85.333333H128c-46.933333 0-85.333333 38.4-85.333333 85.333333v106.666667h746.666666v-106.666667z m-522.666666 42.666667h-106.666667c-17.066667 0-32-14.933333-32-32S142.933333 234.666667 160 234.666667h106.666667c17.066667 0 32 14.933333 32 32s-14.933333 32-32 32z m298.666666 0c-17.066667 0-32-14.933333-32-32s14.933333-32 32-32 32 14.933333 32 32-14.933333 32-32 32z m106.666667 0c-17.066667 0-32-14.933333-32-32s14.933333-32 32-32 32 14.933333 32 32-14.933333 32-32 32zM964.266667 629.333333l-121.6-121.6c-17.066667-17.066667-42.666667-17.066667-59.733334 0l-29.866666 29.866667-29.866667-29.866667-102.4 102.4c-10.666667 10.666667-14.933333 27.733333-10.666667 42.666667l34.133334 117.333333-25.6 25.6c-8.533333 8.533333-8.533333 21.333333 0 29.866667l29.866666 29.866667c8.533333 8.533333 21.333333 8.533333 29.866667 0l25.6-25.6 117.333333 34.133333c14.933333 4.266667 32 0 42.666667-10.666667l102.4-102.4-29.866667-29.866666 29.866667-29.866667c14.933333-19.2 14.933333-46.933333-2.133333-61.866667z m-136.533334-14.933333l-29.866666-29.866667 29.866666-29.866666 29.866667 29.866666-29.866667 29.866667z m61.866667 59.733333l-29.866667-29.866666 29.866667-29.866667 29.866667 29.866667-29.866667 29.866666z" p-id="12179"></path></svg>