<?xml version="1.0" standalone="no"?><!DOCTYPE svg PUBLIC "-//W3C//DTD SVG 1.1//EN" "http://www.w3.org/Graphics/SVG/1.1/DTD/svg11.dtd"><svg t="1689757603554" class="icon" viewBox="0 0 1024 1024" version="1.1" xmlns="http://www.w3.org/2000/svg" p-id="2420" xmlns:xlink="http://www.w3.org/1999/xlink" width="32" height="32"><path d="M844.7 124.4H489c-13.8 0-25 11.2-25 25s11.2 25 25 25h355.7c9 0 16.3 7.3 16.3 16.3v329.8c0 9-7.3 16.3-16.3 16.3H489c-13.8 0-25 11.2-25 25s11.2 25 25 25h355.7c36.6 0 66.3-29.8 66.3-66.3V190.8c0-36.6-29.7-66.4-66.3-66.4z" p-id="2421"></path><path d="M648 515.4c1.9 0 3.8-0.2 5.7-0.7 9.1-2.1 16.2-9.1 18.5-18.1l24.2-93.6 40.2 38.1c6.6 6.3 16.2 8.5 24.9 5.7s15.2-10.1 16.9-19.1l36.1-190c2.6-13.6-6.3-26.6-19.9-29.2-13.6-2.6-26.6 6.3-29.2 19.9l-27.5 145-37.7-35.8c-6.4-6.1-15.6-8.3-24.1-5.9-8.5 2.4-15.1 9.2-17.3 17.8l-22.9 88.4-13.3-15.5c-9-10.5-24.8-11.7-35.3-2.6-10.5 9-11.7 24.8-2.6 35.3l44.5 51.7c4.7 5.4 11.6 8.6 18.8 8.6zM282.4 337.4c60.2 0 109.2-49 109.2-109.2S342.6 119 282.4 119s-109.2 49-109.2 109.2 49 109.2 109.2 109.2z m0-168.4c32.6 0 59.2 26.5 59.2 59.2s-26.5 59.2-59.2 59.2-59.2-26.5-59.2-59.2 26.6-59.2 59.2-59.2zM551.6 413.7c0-33.2-27-60.2-60.2-60.2H167c-14.8 0-28.6 5.9-38.9 16.5-10.3 10.6-15.6 24.6-15.1 39.4l6.9 197c0.6 17.1 9.4 33.1 23.6 42.8l29.4 20c1 0.7 1.6 1.8 1.7 3l14.2 165.6c1.6 18.4 9.9 35.4 23.5 47.8 13.6 12.5 31.2 19.3 49.7 19.3h40.5c37.8 0 69.2-28.4 73.1-66L410 503.7c0.2-1.6 1.3-3 2.8-3.5l96-29c25.6-7.6 42.8-30.8 42.8-57.5z m-57.3 9.8l-96 29c-20.9 6.3-35.9 24.5-38.1 46.2L325.8 834c-1.2 12-11.3 21.1-23.3 21.1H262c-12.3 0-22.3-9.2-23.4-21.5L224.4 668c-1.4-16.2-9.9-30.8-23.4-40l-29.4-20c-1.1-0.7-1.7-1.9-1.8-3.2l-6.9-197c0-1.4 0.6-2.4 1.1-2.9 0.5-0.6 1.5-1.2 2.9-1.2h324.4c5.6 0 10.2 4.6 10.2 10.2 0.1 4.3-2.8 8.3-7.2 9.6z" p-id="2422"></path></svg>