<?xml version="1.0" standalone="no"?><!DOCTYPE svg PUBLIC "-//W3C//DTD SVG 1.1//EN" "http://www.w3.org/Graphics/SVG/1.1/DTD/svg11.dtd"><svg t="1697966476988" class="icon" viewBox="0 0 1024 1024" version="1.1" xmlns="http://www.w3.org/2000/svg" p-id="11050" xmlns:xlink="http://www.w3.org/1999/xlink" width="64" height="64"><path d="M519.868669 583.569892A291.784946 291.784946 0 1 1 811.653615 291.784946 292.115269 292.115269 0 0 1 519.868669 583.569892z m0-528.516129A236.731183 236.731183 0 1 0 756.599852 291.784946 236.951398 236.951398 0 0 0 519.868669 55.053763z" p-id="11051"></path><path d="M35.395551 1024A27.526882 27.526882 0 0 1 7.868669 996.473118C7.868669 738.491183 237.55297 528.516129 519.868669 528.516129A546.463656 546.463656 0 0 1 745.589099 576.082581a27.526882 27.526882 0 1 1-22.021505 50.209032A492.84129 492.84129 0 0 0 519.868669 583.569892C267.942648 583.569892 62.922433 768.770753 62.922433 996.473118A27.526882 27.526882 0 0 1 35.395551 1024z" p-id="11052"></path><path d="M571.839422 854.874839a26.866237 26.866237 0 0 1-8.808602-1.431398 27.526882 27.526882 0 0 1-17.396989-34.793979 247.852043 247.852043 0 0 1 468.947957-2.972903 27.526882 27.526882 0 1 1-51.970753 18.167742 192.688172 192.688172 0 0 0-364.676129 2.312258 27.636989 27.636989 0 0 1-26.095484 18.71828z" p-id="11053"></path><path d="M652.548239 916.094624a27.196559 27.196559 0 0 1-11.891613-2.202151 27.636989 27.636989 0 0 1-12.88258-36.775914 170.446452 170.446452 0 0 1 152.719139-96.013763A168.574624 168.574624 0 0 1 932.771895 875.685161a27.526882 27.526882 0 1 1-49.43828 24.223656 113.851183 113.851183 0 0 0-102.950537-64.302795 115.062366 115.062366 0 0 0-103.060645 64.853333 27.747097 27.747097 0 0 1-24.774194 15.635269z" p-id="11054"></path><path d="M780.162863 962.670108m-52.190968 0a52.190968 52.190968 0 1 0 104.381936 0 52.190968 52.190968 0 1 0-104.381936 0Z" p-id="11055"></path></svg>