<?xml version="1.0" standalone="no"?><!DOCTYPE svg PUBLIC "-//W3C//DTD SVG 1.1//EN" "http://www.w3.org/Graphics/SVG/1.1/DTD/svg11.dtd"><svg t="1697967683841" class="icon" viewBox="0 0 1024 1024" version="1.1" xmlns="http://www.w3.org/2000/svg" p-id="13844" xmlns:xlink="http://www.w3.org/1999/xlink" width="64" height="64"><path d="M0 846.81h0.04C0.02 845.87 0 844.94 0 844v2.81zM932.56 0H91.44C40.94 0 0 40.94 0 91.44V844c0-57.07 26.57-107.93 68-140.91V91.44C68 78.52 78.52 68 91.44 68h841.11C945.48 68 956 78.52 956 91.44v549.11c0 12.93-10.52 23.44-23.44 23.44H715.44v68h217.11c50.5 0 91.44-40.94 91.44-91.44V91.44C1024 40.94 983.06 0 932.56 0z" fill="#000000" p-id="13845"></path><path d="M383.48 664H180c-42.34 0-81.26 14.63-112 39.09C26.57 736.07 0 786.93 0 844c0 0.94 0.02 1.87 0.04 2.81C1.54 944.92 81.53 1024 180 1024h810c18.78 0 34-15.22 34-34s-15.22-34-34-34H180c-29.92 0-58.04-11.65-79.2-32.8C79.65 902.04 68 873.92 68 844s11.65-58.04 32.8-79.2c21.15-21.15 49.28-32.8 79.2-32.8H715.44v-68H383.48z" fill="#000000" p-id="13846"></path><path d="M163.88 808.21c-18.78 0-34 15.22-34 34s15.22 34 34 34H990c18.78 0 34-15.22 34-34s-15.22-34-34-34H163.88z" fill="#000000" p-id="13847"></path><path d="M294.76 406.12h57.08a162.67 162.67 0 0 0 22.88 55.2l-40.37 40.37c-13.28 13.28-13.28 34.81 0 48.08 13.28 13.28 34.81 13.28 48.08 0l40.37-40.37a162.67 162.67 0 0 0 55.2 22.88v57.08c0 18.78 15.22 34 34 34s34-15.22 34-34v-57.08a162.67 162.67 0 0 0 55.2-22.88l40.37 40.37c13.28 13.28 34.81 13.28 48.08 0 13.28-13.28 13.28-34.81 0-48.08l-40.37-40.37a162.67 162.67 0 0 0 22.88-55.2h57.08c18.78 0 34-15.22 34-34s-15.22-34-34-34h-57.08a162.67 162.67 0 0 0-22.88-55.2l40.37-40.37c13.28-13.28 13.28-34.81 0-48.08-13.28-13.28-34.81-13.28-48.08 0l-40.37 40.37a162.67 162.67 0 0 0-55.2-22.88v-57.08c0-18.78-15.22-34-34-34s-34 15.22-34 34v57.08a162.67 162.67 0 0 0-55.2 22.88l-40.37-40.37c-13.28-13.28-34.81-13.28-48.08 0-13.28 13.28-13.28 34.81 0 48.08l40.37 40.37a162.67 162.67 0 0 0-22.88 55.2h-57.08c-18.78 0-34 15.22-34 34s15.22 34 34 34zM512 276.41c52.77 0 95.71 42.93 95.71 95.71 0 52.77-42.93 95.71-95.71 95.71s-95.71-42.93-95.71-95.71c0-52.78 42.94-95.71 95.71-95.71z" fill="#000000" p-id="13848"></path></svg>