<?xml version="1.0" standalone="no"?><!DOCTYPE svg PUBLIC "-//W3C//DTD SVG 1.1//EN" "http://www.w3.org/Graphics/SVG/1.1/DTD/svg11.dtd"><svg t="1697967450347" class="icon" viewBox="0 0 1088 1024" version="1.1" xmlns="http://www.w3.org/2000/svg" p-id="10952" xmlns:xlink="http://www.w3.org/1999/xlink" width="68" height="64"><path d="M960 832H128c-70.4 0-128-57.6-128-128V128C0 57.6 57.6 0 128 0h832c70.4 0 128 57.6 128 128v576c0 70.4-57.6 128-128 128zM128 64c-38.4 0-64 25.6-64 64v576c0 38.4 25.6 64 64 64h832c38.4 0 64-25.6 64-64V128c0-38.4-25.6-64-64-64H128z" fill="#000000" p-id="10953"></path><path d="M160 672s-6.4 0 0 0c-25.6-6.4-32-19.2-32-38.4 0-6.4 6.4-19.2 121.6-224 6.4-6.4 12.8-12.8 25.6-19.2 12.8 0 19.2 6.4 25.6 12.8l89.6 134.4 160-332.8c6.4-12.8 12.8-19.2 32-19.2 12.8 0 25.6 6.4 25.6 19.2L768 550.4l96-147.2c6.4-12.8 32-19.2 44.8-12.8 12.8 6.4 19.2 32 12.8 44.8l-128 198.4c-6.4 12.8-19.2 19.2-32 12.8-12.8 0-19.2-6.4-25.6-19.2L576 288l-153.6 320c-6.4 12.8-12.8 19.2-25.6 19.2s-25.6-6.4-32-12.8L268.8 473.6C224 550.4 185.6 627.2 179.2 640c6.4 25.6-6.4 32-19.2 32zM544 1024c-19.2 0-32-12.8-32-32v-192c0-19.2 12.8-32 32-32s32 12.8 32 32v192c0 19.2-12.8 32-32 32z" fill="#000000" p-id="10954"></path><path d="M736 1024h-384c-19.2 0-32-12.8-32-32s12.8-32 32-32h384c19.2 0 32 12.8 32 32s-12.8 32-32 32z" fill="#000000" p-id="10955"></path></svg>